<svg width="120" height="64" fill="none" xmlns="http://www.w3.org/2000/svg"><g clip-path="url(#clip0)"><path d="M35.303 25.324c-.073-4.167-1.552-7.63-4.379-10.45-2.68-2.473-6.21-3.743-10.73-3.743-4.73 0-8.685 1.838-11.79 5.438-2.26 2.753-3.467 6.213-3.467 10.59 0 3.954 1.28 7.54 3.891 10.082 3.507 3.235 6.722 4.038 11.944 4.11 3.248 0 7.647-.812 10.683-2.577a10.012 10.012 0 00-1.752-4.108c-2.61 1.201-6.008 2.028-8.55 2.028-5.64 0-8.984-1.7-10.424-6.709 7.472.123 16.838-.524 24.22-2.402.215-.053.351-.85.351-2.26h.003zm-24.328.587c0-1.387.61-5.083 1.121-6.323.511-1.241 1.5-2.694 2.654-2.81 3.65-.369 4.088 6.416 4.313 8.752-3.161.272-5.666.484-8.098.381h.01zm11.877-.697c-.066-1.386-.239-5.198.106-6.92.262-1.327.953-2.064 2.117-2.236 3.63-.541 5.149 5.61 5.477 7.936a34.768 34.768 0 01-7.7 1.22" fill="#2DBFCC"/><path d="M16.42 9.313c-.794.205-1.57.469-2.323.79-3.188 1.38-5.537 3.217-7.13 5.507a24.761 24.761 0 00-.604-.624L0 8.394s4.456 2.186 6.055 1.065c1.546-1.082.763-5.262.763-5.262s3.377 2.538 4.976 1.682C13.33 5.059 13.636 0 13.636 0s2.057 6.831 2.654 8.875l.13.438z" fill="#EC008C"/><path d="M71.33 26.541a15.05 15.05 0 011.21-6.035 15.745 15.745 0 0128.937 0 15.03 15.03 0 011.221 6.035 15.293 15.293 0 01-4.541 10.982 15.797 15.797 0 01-4.977 3.298 16.237 16.237 0 01-12.322 0 15.794 15.794 0 01-4.976-3.298A15.3 15.3 0 0171.33 26.54zm5.972 0a12.148 12.148 0 00.683 4.137 9.342 9.342 0 001.93 3.235 8.895 8.895 0 003.05 2.117 10.922 10.922 0 008.088 0 8.895 8.895 0 003.05-2.117 9.343 9.343 0 001.93-3.234 12.874 12.874 0 000-8.295 9.406 9.406 0 00-1.93-3.234 8.889 8.889 0 00-3.05-2.114 10.88 10.88 0 00-8.088 0 8.889 8.889 0 00-3.05 2.114 9.407 9.407 0 00-1.93 3.234 12.183 12.183 0 00-.683 4.157m42.509-9.893h-8.025v13.38c0 .83.019 1.65.059 2.459.03.747.188 1.483.468 2.176.257.628.69 1.169 1.247 1.556.558.394 1.376.59 2.456.59a11.632 11.632 0 002.053-.185A5.997 5.997 0 00120 35.94v5.103a7.366 7.366 0 01-2.584.78 19.68 19.68 0 01-2.459.215c-2.156 0-3.826-.3-5.009-.902a6.15 6.15 0 01-2.611-2.323 7.533 7.533 0 01-.996-3.208 42.79 42.79 0 01-.156-3.576v-15.38h-4.764v-4.851h4.764V3.085h5.601v8.713h8.025v4.85zM68.573 41.292h-5.6v-4.234h-.123a10.653 10.653 0 01-4.459 3.673 13.782 13.782 0 01-5.82 1.307 15.64 15.64 0 01-6.19-1.18 13.664 13.664 0 01-4.73-3.319 14.858 14.858 0 01-3.02-4.913 17.172 17.172 0 01-1.045-6.085 17.438 17.438 0 011.055-6.13 14.498 14.498 0 013.019-4.914 13.9 13.9 0 014.731-3.268 15.594 15.594 0 016.19-1.184 13.656 13.656 0 015.973 1.327 10.224 10.224 0 014.296 3.649h.123V3.085h5.6v38.207zm-15.308-4.466c1.388.02 2.766-.243 4.048-.776a8.959 8.959 0 003.049-2.117 9.389 9.389 0 001.927-3.235 12.873 12.873 0 000-8.294 9.45 9.45 0 00-1.927-3.235 8.958 8.958 0 00-3.05-2.113 10.889 10.889 0 00-8.091 0 8.889 8.889 0 00-3.049 2.113 9.347 9.347 0 00-1.927 3.235 12.816 12.816 0 000 8.294 9.288 9.288 0 001.927 3.235 8.895 8.895 0 003.049 2.117c1.28.533 2.657.797 4.044.776M69.216 57.3a4.95 4.95 0 001.66 1.094c.657.27 1.362.405 2.073.398.688 0 1.367-.15 1.99-.44a3.41 3.41 0 001.513-1.364h.063v1.502c0 .432-.057.862-.172 1.278-.11.415-.312.8-.59 1.128a3.06 3.06 0 01-1.125.803 4.43 4.43 0 01-1.782.312 4.595 4.595 0 01-1.99-.418 5.335 5.335 0 01-1.633-1.235l-1.307 1.633a6.5 6.5 0 002.306 1.416c.378.125.765.22 1.158.286h2.84c.323-.062.64-.15.948-.266a5.057 5.057 0 001.762-1.085 4.848 4.848 0 001.128-1.658 5.5 5.5 0 00.395-2.114V48.484h-1.931v1.46h-.043a3.65 3.65 0 00-1.533-1.267 4.73 4.73 0 00-1.99-.451 5.381 5.381 0 00-2.137.408 4.715 4.715 0 00-1.632 1.138 5.066 5.066 0 00-1.039 1.705 5.886 5.886 0 00-.365 2.093 5.447 5.447 0 00.385 2.07 5.027 5.027 0 001.048 1.66zm.84-5.15c.142-.414.368-.794.663-1.118a3.1 3.1 0 011.052-.73 3.756 3.756 0 012.79 0c.398.167.757.416 1.052.73.294.325.52.705.663 1.119.16.458.24.94.236 1.426a3.424 3.424 0 01-.902 2.478 3.676 3.676 0 01-4.894 0 3.42 3.42 0 01-.899-2.478 4.126 4.126 0 01.239-1.426zm41.185 11.549v-6.496h.044c.366.55.878.985 1.479 1.257.645.306 1.35.464 2.064.462a5.376 5.376 0 002.133-.408 4.776 4.776 0 001.632-1.129 5.024 5.024 0 001.042-1.695 6.24 6.24 0 000-4.207 5.124 5.124 0 00-1.042-1.705 4.712 4.712 0 00-1.632-1.138 5.374 5.374 0 00-2.133-.408c-.694 0-1.38.155-2.007.451-.62.272-1.152.71-1.536 1.268h-.044v-1.46h-1.93v15.208h1.93zm.236-11.542c.144-.414.37-.794.664-1.118a3.06 3.06 0 011.051-.73 3.755 3.755 0 012.79 0c.398.166.757.415 1.052.73.295.323.521.704.664 1.118a4.386 4.386 0 010 2.853 3.164 3.164 0 01-.664 1.115 3.065 3.065 0 01-1.052.73 3.755 3.755 0 01-2.79 0 3.06 3.06 0 01-1.051-.73 3.21 3.21 0 01-.664-1.115 4.439 4.439 0 010-2.853zm-11.92 5.839c.334.314.733.552 1.167.7.457.152.936.228 1.417.226a4.215 4.215 0 002.084-.505c.556-.29 1-.757 1.264-1.327h.043v1.566h1.934V48.491h-1.934v5.235a4.82 4.82 0 01-.213 1.523 2.904 2.904 0 01-.6 1.065c-.249.27-.558.48-.903.61a3.152 3.152 0 01-1.118.193 2.76 2.76 0 01-.869-.14 1.92 1.92 0 01-.74-.45 2.228 2.228 0 01-.514-.817 3.35 3.35 0 01-.192-1.211v-6.008h-1.931v6.545a4.68 4.68 0 00.298 1.749c.175.459.45.873.807 1.21zm-11.709-.63a5.443 5.443 0 001.716 1.135 5.57 5.57 0 004.25 0 5.461 5.461 0 001.718-1.135 5.289 5.289 0 001.566-3.789 5.195 5.195 0 00-.418-2.083 5.473 5.473 0 00-1.131-1.696 5.431 5.431 0 00-8.832 1.696 5.195 5.195 0 00-.418 2.083 5.289 5.289 0 001.566 3.79h-.017zm.73-5.215c.143-.414.369-.795.664-1.118a3.065 3.065 0 011.051-.73 3.755 3.755 0 012.79 0c.399.166.757.415 1.052.73.294.324.52.704.664 1.118a4.44 4.44 0 010 2.853c-.143.413-.37.792-.664 1.115a3.065 3.065 0 01-1.051.73 3.755 3.755 0 01-2.79 0 3.065 3.065 0 01-1.052-.73 3.165 3.165 0 01-.664-1.115 4.44 4.44 0 010-2.853zm-6.353 1.403c0-1.106.25-1.929.75-2.469a2.855 2.855 0 012.17-.793c.158 0 .315.014.47.044.157.03.316.063.472.106l.086-2.08a2.702 2.702 0 00-.86-.13 3.3 3.3 0 00-.941.14 3.795 3.795 0 00-.87.374 3.57 3.57 0 00-.72.571 2.748 2.748 0 00-.514.74h-.043V48.49h-1.937v10.172h1.93l.007-5.11z" fill="#2DBFCC"/></g><defs><clipPath id="clip0"><path fill="#fff" d="M0 0h120v63.693H0z"/></clipPath></defs></svg>